<?xml version="1.0" encoding="UTF-8" standalone="no"?>
<svg width="64px" height="64px" viewBox="0 0 64 64" version="1.1" xmlns="http://www.w3.org/2000/svg" xmlns:xlink="http://www.w3.org/1999/xlink">
    <!-- Generator: Sketch 39.1 (31720) - http://www.bohemiancoding.com/sketch -->
    <title>nuvela-icon</title>
    <desc>Created with Sketch.</desc>
    <defs></defs>
    <g id="Page-1" stroke="none" stroke-width="1" fill="none" fill-rule="evenodd">
        <g id="nuvela-icon">
            <path d="M45.5714286,27.981982 C44.9314286,27.981982 44.4285714,27.4904505 44.4285714,26.8648649 C44.4285714,26.2392793 44.9314286,25.7477477 45.5714286,25.7477477 C46.2114286,25.7477477 46.7142857,26.2392793 46.7142857,26.8648649 C46.7142857,27.4904505 46.2114286,27.981982 45.5714286,27.981982 M45.5714286,32.4504505 C44.9314286,32.4504505 44.4285714,31.9589189 44.4285714,31.3333333 C44.4285714,30.7077477 44.9314286,30.2162162 45.5714286,30.2162162 C46.2114286,30.2162162 46.7142857,30.7077477 46.7142857,31.3333333 C46.7142857,31.9589189 46.2114286,32.4504505 45.5714286,32.4504505 M18.1428571,23.5135135 C17,23.5135135 17,23.5135135 17,24.6306306 L17,44.7387387 C17,45.8558559 17,45.8558559 18.1428571,45.8558559 L47.8571429,45.8558559 C49,45.8558559 49,45.8558559 49,44.7387387 L49,24.6306306 C49,23.5135135 49,23.5135135 47.8571429,23.5135135 L18.1428571,23.5135135 Z M20.7857143,26 C20,26 20,26 20,26.85 L20,42.15 C20,43 20,43 20.7857143,43 L41.2142857,43 C42,43 42,43 42,42.15 L42,26.85 C42,26 42,26 41.2142857,26 L20.7857143,26 Z" id="Combined-Shape" fill="#FFFFFF"></path>
            <g id="Group" transform="translate(22.189189, 14.000000)" stroke="#FFFFFF" stroke-width="2" stroke-linecap="square">
                <path d="M20.3243243,9.94594595 L11.1510472,0.772668787" id="Line" transform="translate(15.567568, 5.189189) scale(-1, 1) translate(-15.567568, -5.189189) "></path>
                <path d="M9.94594595,9.94594595 L0.772668787,0.772668787" id="Line"></path>
            </g>
        </g>
    </g>
</svg>