<?xml version="1.0" encoding="UTF-8" standalone="no"?>
<svg width="64px" height="64px" viewBox="0 0 64 64" version="1.1" xmlns="http://www.w3.org/2000/svg" xmlns:xlink="http://www.w3.org/1999/xlink">
    <!-- Generator: Sketch 39.1 (31720) - http://www.bohemiancoding.com/sketch -->
    <title>nuvela-icon</title>
    <desc>Created with Sketch.</desc>
    <defs></defs>
    <g id="Page-1" stroke="none" stroke-width="1" fill="none" fill-rule="evenodd">
        <g id="nuvela-icon">
            <g id="Group-2" transform="translate(14.000000, 11.000000)">
                <g id="Page-1" transform="translate(0.000000, 11.000000)" fill="#FFFFFF">
                    <path d="M33.0357143,5.16666667 C32.2957143,5.16666667 31.7142857,4.59833333 31.7142857,3.875 C31.7142857,3.15166667 32.2957143,2.58333333 33.0357143,2.58333333 C33.7757143,2.58333333 34.3571429,3.15166667 34.3571429,3.875 C34.3571429,4.59833333 33.7757143,5.16666667 33.0357143,5.16666667 M33.0357143,10.3333333 C32.2957143,10.3333333 31.7142857,9.765 31.7142857,9.04166667 C31.7142857,8.31833333 32.2957143,7.75 33.0357143,7.75 C33.7757143,7.75 34.3571429,8.31833333 34.3571429,9.04166667 C34.3571429,9.765 33.7757143,10.3333333 33.0357143,10.3333333 M28.4107143,21.39 C28.2785714,22.0358333 27.8292857,22.475 27.1685714,22.5525 C22.4114286,23.1208333 9.25,23.4825 4.54571429,22.5525 C3.885,22.4233333 3.43571429,22.0358333 3.30357143,21.39 C2.37857143,16.8175 2.32571429,8.99 3.30357143,4.4175 C3.43571429,3.7975 3.885,3.35833333 4.54571429,3.28083333 C9.30285714,2.7125 22.4642857,2.35083333 27.1685714,3.28083333 C27.8292857,3.41 28.2785714,3.7975 28.4107143,4.44333333 C29.3357143,9.01583333 29.3357143,16.8175 28.4107143,21.39 M35.6785714,0 L1.32142857,0 C0,0 0,0 0,1.29166667 L0,24.5416667 C0,25.8333333 0,25.8333333 1.32142857,25.8333333 L35.6785714,25.8333333 C37,25.8333333 37,25.8333333 37,24.5416667 L37,1.29166667 C37,0 37,0 35.6785714,0" id="Fill-3"></path>
                </g>
                <g id="Group" transform="translate(6.000000, 0.000000)" stroke="#FFFFFF" stroke-width="2" stroke-linecap="square">
                    <path d="M23.5,11.5 L12.8933983,0.893398285" id="Line" transform="translate(18.000000, 6.000000) scale(-1, 1) translate(-18.000000, -6.000000) "></path>
                    <path d="M11.5,11.5 L0.893398285,0.893398285" id="Line"></path>
                </g>
            </g>
        </g>
    </g>
</svg>